<?xml version="1.0" standalone="no"?>
<!DOCTYPE svg PUBLIC "-//W3C//DTD SVG 20010904//EN"
 "http://www.w3.org/TR/2001/REC-SVG-20010904/DTD/svg10.dtd">
<svg version="1.0" xmlns="http://www.w3.org/2000/svg"
 width="512.000000pt" height="512.000000pt" viewBox="0 0 512.000000 512.000000"
 preserveAspectRatio="xMidYMid meet">
<metadata>
Created by potrace 1.14, written by Peter Selinger 2001-2017
</metadata>
<g transform="translate(0.000000,512.000000) scale(0.100000,-0.100000)"
fill="#000000" stroke="none">
<path d="M2379 5116 c-2 -2 -33 -6 -69 -9 -109 -10 -159 -19 -169 -31 -10 -13
-70 -228 -87 -316 -3 -14 -7 -33 -10 -42 -3 -10 -7 -30 -10 -45 -3 -16 -11
-55 -19 -88 -7 -33 -21 -100 -29 -150 -9 -49 -18 -101 -21 -115 -3 -14 -8 -46
-11 -72 l-6 -48 617 0 617 0 -7 57 c-15 120 -83 447 -131 633 -47 180 -52 197
-67 197 -12 1 -69 9 -137 19 -38 6 -456 15 -461 10z"/>
<path d="M1475 4877 c-176 -84 -391 -216 -495 -304 -8 -7 -31 -26 -50 -42 -69
-58 -86 -73 -130 -115 -40 -38 -97 -99 -179 -188 l-25 -28 430 0 430 0 23 138
c13 75 25 151 28 167 7 44 61 300 77 368 7 31 11 57 7 57 -3 0 -55 -24 -116
-53z"/>
<path d="M3571 4758 c21 -95 53 -259 70 -365 l32 -193 430 0 430 0 -19 22
c-53 63 -252 259 -307 303 -34 27 -64 52 -67 55 -14 15 -156 113 -238 163
-107 67 -344 187 -367 187 -1 0 15 -78 36 -172z"/>
<path d="M270 3699 c-118 -232 -212 -545 -244 -811 l-13 -108 669 0 668 0 0
98 c0 125 16 430 35 652 8 96 15 187 15 202 l0 28 -550 0 -550 0 -30 -61z"/>
<path d="M1876 3703 c-23 -214 -56 -723 -56 -860 l0 -63 745 0 745 0 0 63 c0
137 -33 646 -56 860 l-7 57 -682 0 -682 0 -7 -57z"/>
<path d="M3730 3732 c0 -15 7 -106 15 -202 19 -222 35 -527 35 -652 l0 -98
668 0 669 0 -13 108 c-32 266 -126 579 -244 811 l-30 61 -550 0 -550 0 0 -28z"/>
<path d="M24 2268 c20 -216 114 -553 215 -773 l50 -110 556 -3 556 -2 -5 42
c-7 58 -14 145 -21 248 -4 47 -8 105 -10 130 -3 41 -13 283 -19 465 l-2 70
-663 3 -663 2 6 -72z"/>
<path d="M1825 2223 c4 -133 15 -350 20 -403 2 -19 6 -80 10 -135 4 -55 8
-113 10 -130 2 -16 6 -63 10 -102 l7 -73 684 0 684 0 1 33 c0 17 2 40 4 49 2
9 6 54 9 100 4 46 9 103 11 128 10 112 17 236 30 523 l6 127 -745 0 -745 0 4
-117z"/>
<path d="M3789 2338 c-1 -4 -5 -103 -14 -333 -4 -99 -8 -193 -10 -210 -2 -16
-6 -73 -9 -125 -7 -99 -13 -175 -22 -247 l-5 -43 554 0 554 0 31 65 c99 202
184 470 218 685 3 19 9 62 15 95 5 33 9 72 9 88 l0 27 -660 0 c-363 0 -660 -1
-661 -2z"/>
<path d="M596 928 c15 -24 78 -92 174 -188 97 -97 117 -114 205 -185 28 -22
56 -45 63 -52 7 -7 17 -13 21 -13 4 0 16 -8 27 -18 35 -33 277 -175 374 -219
52 -24 103 -48 113 -54 20 -11 22 0 7 51 -12 40 -76 355 -85 415 -3 23 -8 52
-10 65 -3 14 -10 54 -15 90 -6 36 -13 77 -16 93 l-6 27 -429 0 c-342 0 -429
-3 -423 -12z"/>
<path d="M1940 932 c0 -17 52 -305 76 -421 29 -139 97 -412 113 -452 11 -29
15 -30 186 -49 80 -9 502 -6 540 3 12 3 47 8 79 12 65 8 62 5 96 133 55 206
160 718 160 775 0 4 -281 7 -625 7 -344 0 -625 -3 -625 -8z"/>
<path d="M3676 918 c-4 -20 -29 -168 -41 -247 -7 -43 -25 -132 -61 -304 -20
-93 -34 -170 -32 -172 4 -5 188 82 273 129 65 37 274 172 285 185 3 3 23 20
45 36 117 87 394 359 395 388 0 4 -193 7 -430 7 l-430 0 -4 -22z"/>
</g>
</svg>
